<svg width="56" height="49" viewBox="0 0 56 49" fill="none" xmlns="http://www.w3.org/2000/svg">
<g clip-path="url(#clip0_1411_229)">
<path d="M28.0947 27.5324C24.3438 27.5324 21.3032 30.5731 21.3032 34.324C21.3032 38.0748 24.3438 41.1155 28.0947 41.1155C31.8455 41.1155 34.8862 38.0748 34.8862 34.324C34.8862 30.5731 31.8455 27.5324 28.0947 27.5324Z" fill="#FFD600" fill-opacity="0.78"/>
<path d="M0.553299 45.1648L25.8922 1.2703C26.8684 -0.423397 29.3213 -0.423397 30.3058 1.2703L55.6447 45.1648C56.9463 47.4175 54.4182 49.9455 52.1655 48.644L39.4752 41.3185C38.157 40.5593 37.4728 39.0074 37.89 37.5473C38.2571 36.2457 38.3823 34.844 38.1904 33.3839C37.5896 28.7867 33.8435 25.124 29.2296 24.6234C23.0888 23.9559 17.8992 28.7533 17.8992 34.7522C17.8992 35.6783 18.0244 36.5794 18.258 37.4305C18.6668 38.9406 18.0661 40.5342 16.7145 41.3102L4.0159 48.644C1.7715 49.9455 -0.748199 47.4258 0.553299 45.1648Z" fill="url(#paint0_linear_1411_229)"/>
</g>
<defs>
<linearGradient id="paint0_linear_1411_229" x1="42.6506" y1="45.4735" x2="15.5346" y2="5.4252" gradientUnits="userSpaceOnUse">
<stop stop-color="#EF1262"/>
<stop offset="1" stop-color="#4361EE"/>
</linearGradient>
<clipPath id="clip0_1411_229">
<rect width="56" height="49" fill="white" transform="matrix(-1 0 0 -1 56 49)"/>
</clipPath>
</defs>
</svg>
