<svg width="280" height="64" viewBox="0 0 280 64" fill="none" xmlns="http://www.w3.org/2000/svg">
<g clip-path="url(#clip0_1411_192)">
<mask id="mask0_1411_192" style="mask-type:luminance" maskUnits="userSpaceOnUse" x="52" y="0" width="73" height="64">
<path d="M51.9999 63.5896L124.674 63.5988L124.682 0.00915906L52.0079 2.96182e-05L51.9999 63.5896Z" fill="white"/>
</mask>
<g mask="url(#mask0_1411_192)">
<path d="M88.4639 35.7349C83.5962 35.7343 79.6498 39.6798 79.6492 44.5475C79.6486 49.4151 83.594 53.3617 88.4617 53.3623C93.3293 53.3629 97.2759 49.4173 97.2765 44.5497C97.2771 39.682 93.3315 35.7355 88.4639 35.7349Z" fill="white"/>
<path d="M52.7187 58.6126L85.6093 1.65275C86.8764 -0.545092 90.0597 -0.544692 91.337 1.65347L124.213 58.6216C125.902 61.5452 122.621 64.8256 119.698 63.1361L103.23 53.6274C101.52 52.6418 100.632 50.6278 101.173 48.7331C101.65 47.044 101.813 45.225 101.564 43.3301C100.785 37.364 95.9241 32.6101 89.9366 31.9597C81.9675 31.0925 75.2319 37.3174 75.231 45.1024C75.2308 46.3043 75.3931 47.4738 75.6961 48.5783C76.2264 50.5381 75.4466 52.6062 73.6924 53.6129L57.2116 63.1282C54.2988 64.817 51.0292 61.5466 52.7187 58.6126Z" fill="white"/>
</g>
<path d="M145.193 52C140.859 52 137.177 51.2268 134.147 49.6805C131.156 48.0982 128.874 45.8506 127.301 42.9378C125.767 40.0249 125 36.5546 125 32.527C125 29.5062 125.441 26.8091 126.323 24.4357C127.205 22.0263 128.49 19.9765 130.178 18.2863C131.904 16.5602 133.975 15.2476 136.391 14.3485C138.845 13.4495 141.607 13 144.675 13C147.053 13 149.354 13.3057 151.579 13.917C153.803 14.4924 155.836 15.4454 157.677 16.7759C158.137 17.0996 158.425 17.4772 158.54 17.9087C158.693 18.3403 158.712 18.7718 158.597 19.2033C158.482 19.6349 158.252 20.0124 157.907 20.3361C157.6 20.6598 157.197 20.8575 156.699 20.9295C156.239 20.9654 155.74 20.8216 155.203 20.4979C153.631 19.4191 151.981 18.6459 150.255 18.1784C148.568 17.7109 146.708 17.4772 144.675 17.4772C141.645 17.4772 139.076 18.0705 136.966 19.2573C134.857 20.408 133.265 22.1162 132.191 24.3817C131.156 26.6113 130.638 29.3264 130.638 32.527C130.638 37.4537 131.865 41.1936 134.32 43.7469C136.813 46.3001 140.495 47.5768 145.365 47.5768C147.168 47.5768 148.913 47.4149 150.601 47.0913C152.327 46.7676 153.976 46.3181 155.548 45.7427L154.398 48.4398V35.4398H146.574C145.883 35.4398 145.327 35.26 144.905 34.9004C144.522 34.5408 144.33 34.0553 144.33 33.444C144.33 32.8326 144.522 32.3651 144.905 32.0415C145.327 31.7178 145.883 31.556 146.574 31.556H156.756C157.447 31.556 157.984 31.7358 158.367 32.0954C158.789 32.455 159 32.9765 159 33.6597V47.5228C159 48.0982 158.885 48.6017 158.655 49.0332C158.425 49.4288 158.041 49.7165 157.504 49.8963C155.893 50.5076 153.976 51.0111 151.751 51.4066C149.527 51.8022 147.341 52 145.193 52Z" fill="white"/>
<path d="M181.525 52C179.155 52 177.056 51.6754 175.228 51.0263C173.433 50.3412 171.926 49.3495 170.708 48.0513C169.489 46.7171 168.558 45.0763 167.914 43.129C167.305 41.1456 167 38.8558 167 36.2594V15.5423C167 14.6768 167.203 14.0458 167.609 13.6491C168.016 13.2164 168.591 13 169.336 13C170.115 13 170.708 13.2164 171.114 13.6491C171.52 14.0458 171.723 14.6768 171.723 15.5423V36.0971C171.723 39.9556 172.553 42.8405 174.212 44.7517C175.871 46.6269 178.309 47.5645 181.525 47.5645C184.742 47.5645 187.18 46.6269 188.839 44.7517C190.498 42.8405 191.327 39.9556 191.327 36.0971V15.5423C191.327 14.6768 191.531 14.0458 191.937 13.6491C192.343 13.2164 192.919 13 193.664 13C194.409 13 194.984 13.2164 195.391 13.6491C195.797 14.0458 196 14.6768 196 15.5423V36.2594C196 39.6852 195.441 42.57 194.324 44.914C193.241 47.258 191.615 49.025 189.448 50.215C187.315 51.405 184.674 52 181.525 52Z" fill="white"/>
<path d="M206.402 52C205.633 52 205.041 51.7603 204.624 51.2808C204.208 50.8014 204 50.1191 204 49.234V15.766C204 14.8809 204.208 14.1986 204.624 13.7191C205.041 13.2397 205.633 13 206.402 13H224.079C224.687 13 225.151 13.1844 225.472 13.5532C225.824 13.8851 226 14.383 226 15.0468C226 15.7475 225.824 16.2823 225.472 16.6511C225.151 17.0199 224.687 17.2043 224.079 17.2043H208.323V30.0936H223.07C223.678 30.0936 224.143 30.278 224.463 30.6468C224.783 31.0156 224.943 31.5319 224.943 32.1957C224.943 32.8965 224.783 33.4312 224.463 33.8C224.143 34.1319 223.678 34.2979 223.07 34.2979H208.323V47.7957H224.079C224.687 47.7957 225.151 47.9801 225.472 48.3489C225.824 48.6808 226 49.1972 226 49.8979C226 50.5986 225.824 51.1333 225.472 51.5021C225.151 51.834 224.687 52 224.079 52H206.402Z" fill="white"/>
<path d="M16.1544 51.512C15.5144 51.512 15.0024 51.352 14.6184 51.032C14.2344 50.712 13.9144 50.2 13.6584 49.496L3.1944 19.64C2.9064 18.904 2.9384 18.28 3.2904 17.768C3.6744 17.256 4.2984 17 5.1624 17C5.7704 17 6.2504 17.144 6.6024 17.432C6.9544 17.72 7.2424 18.2 7.4664 18.872L17.1144 47.192H15.3864L25.2744 18.968C25.5304 18.296 25.8344 17.8 26.1864 17.48C26.5384 17.16 27.0024 17 27.5784 17C28.1864 17 28.6504 17.16 28.9704 17.48C29.3224 17.8 29.6104 18.312 29.8344 19.016L39.5304 47.192H37.9944L47.7384 18.872C47.9624 18.232 48.2504 17.768 48.6024 17.48C48.9544 17.16 49.4504 17 50.0904 17C50.8264 17 51.3704 17.256 51.7224 17.768C52.0744 18.28 52.1224 18.904 51.8664 19.64L41.3064 49.544C41.0824 50.216 40.7784 50.712 40.3944 51.032C40.0104 51.352 39.4984 51.512 38.8584 51.512C38.1864 51.512 37.6584 51.352 37.2744 51.032C36.8904 50.712 36.5704 50.2 36.3144 49.496L26.9544 22.616H28.0104L18.6024 49.544C18.3464 50.216 18.0264 50.712 17.6424 51.032C17.2904 51.352 16.7944 51.512 16.1544 51.512Z" fill="white"/>
</g>
<defs>
<clipPath id="clip0_1411_192">
<rect width="280" height="64" fill="white"/>
</clipPath>
</defs>
</svg>
